# xmcd
#
# Track frame offsets: 
#        150
#        25986
#        47260
#        67634
#        85072
#        105954
#        124870
#        146008
#        163885
#        178842
#        210145
#        245763
#        253046
#
# Disc length: 3641 seconds
#
# Revision: 0
# Processed by: cddbd v1.5.2PL0 Copyright (c) Steve Scherf et al.
# Submitted via: ExactAudioCopy v0.99pb4
#
DISCID=a60e370d
DTITLE=Cornmeal - Tales From Magic Stone Mountain
DYEAR=2003
DGENRE=Bluegrass
TTITLE0=Midnight
TTITLE1=It Ain't Me
TTITLE2=The Chicken And The Egg
TTITLE3=Lost Love
TTITLE4=Stand Up
TTITLE5=Heaven On Time
TTITLE6=Long Gone
TTITLE7=Get Me Some
TTITLE8=Blue-Line Express
TTITLE9=Praying For Rain
TTITLE10=Magic Stone Mountain (Pt 1)
TTITLE11=Evergreen
TTITLE12=Magic Stone Mountain (Pt 2)
EXTD=
EXTT0=
EXTT1=
EXTT2=
EXTT3=
EXTT4=
EXTT5=
EXTT6=
EXTT7=
EXTT8=
EXTT9=
EXTT10=
EXTT11=
EXTT12=
PLAYORDER=
